<?xml version="1.0" encoding="UTF-8" standalone="no"?>
<svg
   viewBox="0 0 1024 1024"
   width="1024"
   height="1024"
   version="1.1"
   id="svg2"
   xmlns="http://www.w3.org/2000/svg"
   xmlns:svg="http://www.w3.org/2000/svg">
  <defs
     id="defs2" />
  <!-- 
    Master Logo File
    Canvas Size: 1024x1024 (Scaled up 2x from 512) 
    This high resolution is ideal for master editing and converting to paths.
  -->
  <!-- Background: rx scaled from 96 -> 192 -->
  <rect
     width="1024"
     height="1024"
     rx="192"
     fill="#0f172a"
     id="rect1" />
  <path
     d="m 547.91953,525.31998 h -229.68 v 179.28 q 0,33.12 67.68,33.12 v 41.76 h -241.92 v -41.76 q 64.08,0 64.08,-33.12 v -384.48 q 0,-33.12 -64.08,-33.12 v -42.48 h 241.92 v 42.48 q -67.68,0 -67.68,33.12 v 152.64 h 229.68 z"
     id="text8"
     style="font-size:720px;font-family:'Sofia Sans';-inkscape-font-specification:'Sofia Sans, Normal';dominant-baseline:central;text-anchor:end;fill:#ff9900"
     aria-label="Ͱ" />
  <path
     d="m 521.42577,317.59734 q -8.15728,0 -8.15728,-8.15728 v -56.28524 q 0,-8.973 8.15728,-8.973 h 351.57878 q 8.15728,0 8.15728,8.973 v 56.28524 q 0,8.15728 -8.15728,8.15728 z m 0,460.88633 q -8.15728,0 -8.15728,-8.97301 v -56.28523 q 0,-8.15728 8.15728,-8.15728 h 351.57878 q 8.15728,0 8.15728,8.15728 v 56.28523 q 0,8.97301 -8.15728,8.97301 z M 585.05256,543.554 q -8.15728,0 -8.15728,-8.15728 v -56.28523 q 0,-8.97301 8.15728,-8.97301 h 223.50948 q 8.15728,0 8.15728,8.97301 v 56.28523 q 0,8.15728 -8.15728,8.15728 z"
     id="text9"
     style="font-weight:500;font-size:815.728px;font-family:'Sofia Sans';-inkscape-font-specification:'Sofia Sans, Medium';dominant-baseline:central;fill:#ff9900;stroke-width:1.00124"
     transform="scale(0.99869623,1.0013055)"
     aria-label="Ξ" />
  <!-- Left Character: Ͱ -->
  <!-- x: 240 * 2 = 480 -->
  <!-- font-size: 360 * 2 = 720 -->
  <!-- dy: 2 * 2 = 4 -->
  <!-- Right Character: Ξ -->
  <!-- x: 216 * 2 = 432 -->
  <!-- dy: 16 * 2 = 32 -->
  <g
     id="layer1"
     style="display:none"
     transform="translate(-3.0822754,3.0822754)" />
</svg>
